<svg xmlns="http://www.w3.org/2000/svg" width="42.246" height="37.583" viewBox="0 0 42.246 37.583">
  <g id="Grupo_186" data-name="Grupo 186" transform="translate(0 0)">
    <g id="Grupo_185" data-name="Grupo 185">
      <path id="Trazado_244" data-name="Trazado 244" d="M1555.609,286.676a11.361,11.361,0,0,0-8.456-3.676,10.682,10.682,0,0,0-6.636,2.29,13.286,13.286,0,0,0-2.678,2.807,13.327,13.327,0,0,0-2.689-2.807,10.634,10.634,0,0,0-6.636-2.29,11.336,11.336,0,0,0-8.445,3.676,13.215,13.215,0,0,0-3.359,9.02c0,3.57,1.339,6.847,4.193,10.288,2.56,3.089,6.236,6.225,10.488,9.842l.012.012c1.445,1.233,3.089,2.643,4.8,4.134a2.487,2.487,0,0,0,3.265,0c1.7-1.5,3.359-2.9,4.8-4.146,4.263-3.617,7.939-6.753,10.488-9.842,2.866-3.441,4.193-6.718,4.193-10.288A13.2,13.2,0,0,0,1555.609,286.676Zm-2.748,17.735c-2.419,2.913-6.013,5.99-10.183,9.537-1.456,1.245-3.112,2.654-4.851,4.158-1.715-1.5-3.371-2.913-4.827-4.146v-.012c-4.169-3.547-7.775-6.624-10.194-9.537-2.5-3.018-3.618-5.708-3.618-8.715a10.744,10.744,0,0,1,2.7-7.341,8.89,8.89,0,0,1,6.624-2.877,8.2,8.2,0,0,1,5.121,1.773,11.807,11.807,0,0,1,2.854,3.3,1.556,1.556,0,0,0,1.35.763,1.538,1.538,0,0,0,1.339-.763,12.005,12.005,0,0,1,2.854-3.3,8.22,8.22,0,0,1,5.121-1.773,8.916,8.916,0,0,1,6.636,2.877,10.736,10.736,0,0,1,2.689,7.341C1556.478,298.7,1555.362,301.392,1552.86,304.411Z" transform="translate(-1516.71 -283)" fill="#fff"/>
    </g>
  </g>
</svg>
