<svg xmlns="http://www.w3.org/2000/svg" width="373.486" height="36.409" viewBox="0 0 373.486 36.409">
  <g id="Grupo_1233" data-name="Grupo 1233" transform="translate(0)">
    <g id="Grupo_246" data-name="Grupo 246" transform="translate(34.765 5.285)">
      <path id="Trazado_329" data-name="Trazado 329" d="M1542.522,160.619h-2.772V157.73h2.96a2.464,2.464,0,0,1,1.468.364,1.2,1.2,0,0,1,.505,1.045v.035a1.186,1.186,0,0,1-.587,1.1A3.16,3.16,0,0,1,1542.522,160.619Z" transform="translate(-1520.7 -149.238)" fill="#fff"/>
      <path id="Trazado_330" data-name="Trazado 330" d="M1544.918,162.719a1.269,1.269,0,0,1,.528,1.081v.035a1.256,1.256,0,0,1-.564,1.128,2.988,2.988,0,0,1-1.562.352h-3.57V162.32h3.476A2.8,2.8,0,0,1,1544.918,162.719Z" transform="translate(-1520.7 -148.438)" fill="#fff"/>
      <path id="Trazado_331" data-name="Trazado 331" d="M1639.792,161.528a4.006,4.006,0,0,0-.857-1.362,4.2,4.2,0,0,0-4.639-.94,3.92,3.92,0,0,0-1.292.916,4.338,4.338,0,0,0-.834,1.362,4.449,4.449,0,0,0-.305,1.644v.035a4.557,4.557,0,0,0,.305,1.656,4.243,4.243,0,0,0,.857,1.374,4.467,4.467,0,0,0,1.3.928,4.07,4.07,0,0,0,1.668.341,4.151,4.151,0,0,0,1.668-.341,3.6,3.6,0,0,0,1.292-.916,4.285,4.285,0,0,0,.834-1.351,4.543,4.543,0,0,0,.305-1.644v-.047A4.56,4.56,0,0,0,1639.792,161.528Zm0,0a4.006,4.006,0,0,0-.857-1.362,4.2,4.2,0,0,0-4.639-.94,3.92,3.92,0,0,0-1.292.916,4.338,4.338,0,0,0-.834,1.362,4.449,4.449,0,0,0-.305,1.644v.035a4.557,4.557,0,0,0,.305,1.656,4.243,4.243,0,0,0,.857,1.374,4.467,4.467,0,0,0,1.3.928,4.07,4.07,0,0,0,1.668.341,4.151,4.151,0,0,0,1.668-.341,3.6,3.6,0,0,0,1.292-.916,4.285,4.285,0,0,0,.834-1.351,4.543,4.543,0,0,0,.305-1.644v-.047A4.56,4.56,0,0,0,1639.792,161.528Zm0,0a4.006,4.006,0,0,0-.857-1.362,4.2,4.2,0,0,0-4.639-.94,3.92,3.92,0,0,0-1.292.916,4.338,4.338,0,0,0-.834,1.362,4.449,4.449,0,0,0-.305,1.644v.035a4.557,4.557,0,0,0,.305,1.656,4.243,4.243,0,0,0,.857,1.374,4.467,4.467,0,0,0,1.3.928,4.07,4.07,0,0,0,1.668.341,4.151,4.151,0,0,0,1.668-.341,3.6,3.6,0,0,0,1.292-.916,4.285,4.285,0,0,0,.834-1.351,4.543,4.543,0,0,0,.305-1.644v-.047A4.56,4.56,0,0,0,1639.792,161.528Zm0,0a4.006,4.006,0,0,0-.857-1.362,4.2,4.2,0,0,0-4.639-.94,3.92,3.92,0,0,0-1.292.916,4.338,4.338,0,0,0-.834,1.362,4.449,4.449,0,0,0-.305,1.644v.035a4.557,4.557,0,0,0,.305,1.656,4.243,4.243,0,0,0,.857,1.374,4.467,4.467,0,0,0,1.3.928,4.07,4.07,0,0,0,1.668.341,4.151,4.151,0,0,0,1.668-.341,3.6,3.6,0,0,0,1.292-.916,4.285,4.285,0,0,0,.834-1.351,4.543,4.543,0,0,0,.305-1.644v-.047A4.56,4.56,0,0,0,1639.792,161.528Zm0,0a4.006,4.006,0,0,0-.857-1.362,4.2,4.2,0,0,0-4.639-.94,3.92,3.92,0,0,0-1.292.916,4.338,4.338,0,0,0-.834,1.362,4.449,4.449,0,0,0-.305,1.644v.035a4.557,4.557,0,0,0,.305,1.656,4.243,4.243,0,0,0,.857,1.374,4.467,4.467,0,0,0,1.3.928,4.07,4.07,0,0,0,1.668.341,4.151,4.151,0,0,0,1.668-.341,3.6,3.6,0,0,0,1.292-.916,4.285,4.285,0,0,0,.834-1.351,4.543,4.543,0,0,0,.305-1.644v-.047A4.56,4.56,0,0,0,1639.792,161.528Zm70.281-1.973a2.783,2.783,0,0,0-1.738-.482h-2.983V163h3.042a2.5,2.5,0,0,0,1.715-.529,1.778,1.778,0,0,0,.587-1.409v-.035A1.743,1.743,0,0,0,1710.073,159.555Zm0,0a2.783,2.783,0,0,0-1.738-.482h-2.983V163h3.042a2.5,2.5,0,0,0,1.715-.529,1.778,1.778,0,0,0,.587-1.409v-.035A1.743,1.743,0,0,0,1710.073,159.555Zm-70.281,1.973a4.006,4.006,0,0,0-.857-1.362,4.2,4.2,0,0,0-4.639-.94,3.92,3.92,0,0,0-1.292.916,4.338,4.338,0,0,0-.834,1.362,4.449,4.449,0,0,0-.305,1.644v.035a4.557,4.557,0,0,0,.305,1.656,4.243,4.243,0,0,0,.857,1.374,4.467,4.467,0,0,0,1.3.928,4.07,4.07,0,0,0,1.668.341,4.151,4.151,0,0,0,1.668-.341,3.6,3.6,0,0,0,1.292-.916,4.285,4.285,0,0,0,.834-1.351,4.543,4.543,0,0,0,.305-1.644v-.047A4.56,4.56,0,0,0,1639.792,161.528Zm0,0a4.006,4.006,0,0,0-.857-1.362,4.2,4.2,0,0,0-4.639-.94,3.92,3.92,0,0,0-1.292.916,4.338,4.338,0,0,0-.834,1.362,4.449,4.449,0,0,0-.305,1.644v.035a4.557,4.557,0,0,0,.305,1.656,4.243,4.243,0,0,0,.857,1.374,4.467,4.467,0,0,0,1.3.928,4.07,4.07,0,0,0,1.668.341,4.151,4.151,0,0,0,1.668-.341,3.6,3.6,0,0,0,1.292-.916,4.285,4.285,0,0,0,.834-1.351,4.543,4.543,0,0,0,.305-1.644v-.047A4.56,4.56,0,0,0,1639.792,161.528Zm70.281-1.973a2.783,2.783,0,0,0-1.738-.482h-2.983V163h3.042a2.5,2.5,0,0,0,1.715-.529,1.778,1.778,0,0,0,.587-1.409v-.035A1.743,1.743,0,0,0,1710.073,159.555Zm0,0a2.783,2.783,0,0,0-1.738-.482h-2.983V163h3.042a2.5,2.5,0,0,0,1.715-.529,1.778,1.778,0,0,0,.587-1.409v-.035A1.743,1.743,0,0,0,1710.073,159.555Zm-70.281,1.973a4.006,4.006,0,0,0-.857-1.362,4.2,4.2,0,0,0-4.639-.94,3.92,3.92,0,0,0-1.292.916,4.338,4.338,0,0,0-.834,1.362,4.449,4.449,0,0,0-.305,1.644v.035a4.557,4.557,0,0,0,.305,1.656,4.243,4.243,0,0,0,.857,1.374,4.467,4.467,0,0,0,1.3.928,4.07,4.07,0,0,0,1.668.341,4.151,4.151,0,0,0,1.668-.341,3.6,3.6,0,0,0,1.292-.916,4.285,4.285,0,0,0,.834-1.351,4.543,4.543,0,0,0,.305-1.644v-.047A4.56,4.56,0,0,0,1639.792,161.528Zm0,0a4.006,4.006,0,0,0-.857-1.362,4.2,4.2,0,0,0-4.639-.94,3.92,3.92,0,0,0-1.292.916,4.338,4.338,0,0,0-.834,1.362,4.449,4.449,0,0,0-.305,1.644v.035a4.557,4.557,0,0,0,.305,1.656,4.243,4.243,0,0,0,.857,1.374,4.467,4.467,0,0,0,1.3.928,4.07,4.07,0,0,0,1.668.341,4.151,4.151,0,0,0,1.668-.341,3.6,3.6,0,0,0,1.292-.916,4.285,4.285,0,0,0,.834-1.351,4.543,4.543,0,0,0,.305-1.644v-.047A4.56,4.56,0,0,0,1639.792,161.528Zm70.281-1.973a2.783,2.783,0,0,0-1.738-.482h-2.983V163h3.042a2.5,2.5,0,0,0,1.715-.529,1.778,1.778,0,0,0,.587-1.409v-.035A1.743,1.743,0,0,0,1710.073,159.555Zm41.224,1.973a4.1,4.1,0,0,0-2.173-2.29,4.292,4.292,0,0,0-3.324-.012,3.917,3.917,0,0,0-1.292.916,4.338,4.338,0,0,0-.834,1.362,4.451,4.451,0,0,0-.305,1.644v.035a4.56,4.56,0,0,0,.305,1.656,4.055,4.055,0,0,0,.857,1.374,4.18,4.18,0,0,0,1.3.928,4.224,4.224,0,0,0,3.324,0,3.649,3.649,0,0,0,1.3-.916,4.28,4.28,0,0,0,.834-1.351,4.541,4.541,0,0,0,.305-1.644v-.047A4.557,4.557,0,0,0,1751.3,161.528Zm0,0a4.1,4.1,0,0,0-2.173-2.29,4.292,4.292,0,0,0-3.324-.012,3.917,3.917,0,0,0-1.292.916,4.338,4.338,0,0,0-.834,1.362,4.451,4.451,0,0,0-.305,1.644v.035a4.56,4.56,0,0,0,.305,1.656,4.055,4.055,0,0,0,.857,1.374,4.18,4.18,0,0,0,1.3.928,4.224,4.224,0,0,0,3.324,0,3.649,3.649,0,0,0,1.3-.916,4.28,4.28,0,0,0,.834-1.351,4.541,4.541,0,0,0,.305-1.644v-.047A4.557,4.557,0,0,0,1751.3,161.528Zm-41.224-1.973a2.783,2.783,0,0,0-1.738-.482h-2.983V163h3.042a2.5,2.5,0,0,0,1.715-.529,1.778,1.778,0,0,0,.587-1.409v-.035A1.743,1.743,0,0,0,1710.073,159.555Zm-70.281,1.973a4.006,4.006,0,0,0-.857-1.362,4.2,4.2,0,0,0-4.639-.94,3.92,3.92,0,0,0-1.292.916,4.338,4.338,0,0,0-.834,1.362,4.449,4.449,0,0,0-.305,1.644v.035a4.557,4.557,0,0,0,.305,1.656,4.243,4.243,0,0,0,.857,1.374,4.467,4.467,0,0,0,1.3.928,4.07,4.07,0,0,0,1.668.341,4.151,4.151,0,0,0,1.668-.341,3.6,3.6,0,0,0,1.292-.916,4.285,4.285,0,0,0,.834-1.351,4.543,4.543,0,0,0,.305-1.644v-.047A4.56,4.56,0,0,0,1639.792,161.528Zm0,0a4.006,4.006,0,0,0-.857-1.362,4.2,4.2,0,0,0-4.639-.94,3.92,3.92,0,0,0-1.292.916,4.338,4.338,0,0,0-.834,1.362,4.449,4.449,0,0,0-.305,1.644v.035a4.557,4.557,0,0,0,.305,1.656,4.243,4.243,0,0,0,.857,1.374,4.467,4.467,0,0,0,1.3.928,4.07,4.07,0,0,0,1.668.341,4.151,4.151,0,0,0,1.668-.341,3.6,3.6,0,0,0,1.292-.916,4.285,4.285,0,0,0,.834-1.351,4.543,4.543,0,0,0,.305-1.644v-.047A4.56,4.56,0,0,0,1639.792,161.528Zm70.281-1.973a2.783,2.783,0,0,0-1.738-.482h-2.983V163h3.042a2.5,2.5,0,0,0,1.715-.529,1.778,1.778,0,0,0,.587-1.409v-.035A1.743,1.743,0,0,0,1710.073,159.555Zm41.224,1.973a4.1,4.1,0,0,0-2.173-2.29,4.292,4.292,0,0,0-3.324-.012,3.917,3.917,0,0,0-1.292.916,4.338,4.338,0,0,0-.834,1.362,4.451,4.451,0,0,0-.305,1.644v.035a4.56,4.56,0,0,0,.305,1.656,4.055,4.055,0,0,0,.857,1.374,4.18,4.18,0,0,0,1.3.928,4.224,4.224,0,0,0,3.324,0,3.649,3.649,0,0,0,1.3-.916,4.28,4.28,0,0,0,.834-1.351,4.541,4.541,0,0,0,.305-1.644v-.047A4.557,4.557,0,0,0,1751.3,161.528Zm25.991-1.656-1.82,4.428h3.629Zm0,0-1.82,4.428h3.629Zm-25.991,1.656a4.1,4.1,0,0,0-2.173-2.29,4.292,4.292,0,0,0-3.324-.012,3.917,3.917,0,0,0-1.292.916,4.338,4.338,0,0,0-.834,1.362,4.451,4.451,0,0,0-.305,1.644v.035a4.56,4.56,0,0,0,.305,1.656,4.055,4.055,0,0,0,.857,1.374,4.18,4.18,0,0,0,1.3.928,4.224,4.224,0,0,0,3.324,0,3.649,3.649,0,0,0,1.3-.916,4.28,4.28,0,0,0,.834-1.351,4.541,4.541,0,0,0,.305-1.644v-.047A4.557,4.557,0,0,0,1751.3,161.528Zm-41.224-1.973a2.783,2.783,0,0,0-1.738-.482h-2.983V163h3.042a2.5,2.5,0,0,0,1.715-.529,1.778,1.778,0,0,0,.587-1.409v-.035A1.743,1.743,0,0,0,1710.073,159.555Zm-70.281,1.973a4.006,4.006,0,0,0-.857-1.362,4.2,4.2,0,0,0-4.639-.94,3.92,3.92,0,0,0-1.292.916,4.338,4.338,0,0,0-.834,1.362,4.449,4.449,0,0,0-.305,1.644v.035a4.557,4.557,0,0,0,.305,1.656,4.243,4.243,0,0,0,.857,1.374,4.467,4.467,0,0,0,1.3.928,4.07,4.07,0,0,0,1.668.341,4.151,4.151,0,0,0,1.668-.341,3.6,3.6,0,0,0,1.292-.916,4.285,4.285,0,0,0,.834-1.351,4.543,4.543,0,0,0,.305-1.644v-.047A4.56,4.56,0,0,0,1639.792,161.528Zm0,0a4.006,4.006,0,0,0-.857-1.362,4.2,4.2,0,0,0-4.639-.94,3.92,3.92,0,0,0-1.292.916,4.338,4.338,0,0,0-.834,1.362,4.449,4.449,0,0,0-.305,1.644v.035a4.557,4.557,0,0,0,.305,1.656,4.243,4.243,0,0,0,.857,1.374,4.467,4.467,0,0,0,1.3.928,4.07,4.07,0,0,0,1.668.341,4.151,4.151,0,0,0,1.668-.341,3.6,3.6,0,0,0,1.292-.916,4.285,4.285,0,0,0,.834-1.351,4.543,4.543,0,0,0,.305-1.644v-.047A4.56,4.56,0,0,0,1639.792,161.528Zm70.281-1.973a2.783,2.783,0,0,0-1.738-.482h-2.983V163h3.042a2.5,2.5,0,0,0,1.715-.529,1.778,1.778,0,0,0,.587-1.409v-.035A1.743,1.743,0,0,0,1710.073,159.555Zm41.224,1.973a4.1,4.1,0,0,0-2.173-2.29,4.292,4.292,0,0,0-3.324-.012,3.917,3.917,0,0,0-1.292.916,4.338,4.338,0,0,0-.834,1.362,4.451,4.451,0,0,0-.305,1.644v.035a4.56,4.56,0,0,0,.305,1.656,4.055,4.055,0,0,0,.857,1.374,4.18,4.18,0,0,0,1.3.928,4.224,4.224,0,0,0,3.324,0,3.649,3.649,0,0,0,1.3-.916,4.28,4.28,0,0,0,.834-1.351,4.541,4.541,0,0,0,.305-1.644v-.047A4.557,4.557,0,0,0,1751.3,161.528Zm25.991-1.656-1.82,4.428h3.629Zm0,0-1.82,4.428h3.629Zm-25.991,1.656a4.1,4.1,0,0,0-2.173-2.29,4.292,4.292,0,0,0-3.324-.012,3.917,3.917,0,0,0-1.292.916,4.338,4.338,0,0,0-.834,1.362,4.451,4.451,0,0,0-.305,1.644v.035a4.56,4.56,0,0,0,.305,1.656,4.055,4.055,0,0,0,.857,1.374,4.18,4.18,0,0,0,1.3.928,4.224,4.224,0,0,0,3.324,0,3.649,3.649,0,0,0,1.3-.916,4.28,4.28,0,0,0,.834-1.351,4.541,4.541,0,0,0,.305-1.644v-.047A4.557,4.557,0,0,0,1751.3,161.528Zm-41.224-1.973a2.783,2.783,0,0,0-1.738-.482h-2.983V163h3.042a2.5,2.5,0,0,0,1.715-.529,1.778,1.778,0,0,0,.587-1.409v-.035A1.743,1.743,0,0,0,1710.073,159.555Zm-70.281,1.973a4.006,4.006,0,0,0-.857-1.362,4.2,4.2,0,0,0-4.639-.94,3.92,3.92,0,0,0-1.292.916,4.338,4.338,0,0,0-.834,1.362,4.449,4.449,0,0,0-.305,1.644v.035a4.557,4.557,0,0,0,.305,1.656,4.243,4.243,0,0,0,.857,1.374,4.467,4.467,0,0,0,1.3.928,4.07,4.07,0,0,0,1.668.341,4.151,4.151,0,0,0,1.668-.341,3.6,3.6,0,0,0,1.292-.916,4.285,4.285,0,0,0,.834-1.351,4.543,4.543,0,0,0,.305-1.644v-.047A4.56,4.56,0,0,0,1639.792,161.528ZM1523.53,150.5a22.9,22.9,0,0,1,0,25.839h338.72V150.5Zm27.706,15.773a3.592,3.592,0,0,1-.352,1.633,3.3,3.3,0,0,1-1.034,1.174,5.124,5.124,0,0,1-1.621.7,8.9,8.9,0,0,1-2.091.235h-6.483V156.361h6.331a4.821,4.821,0,0,1,3.559,1.21,3.152,3.152,0,0,1,.928,2.325v.035a3.432,3.432,0,0,1-.141,1.034,3.038,3.038,0,0,1-.387.81,3.636,3.636,0,0,1-.564.634,3.9,3.9,0,0,1-.681.47,4.46,4.46,0,0,1,1.856,1.221,3.063,3.063,0,0,1,.681,2.126Zm12.1,3.747h-10.382V156.361h10.277v2.678h-7.305v2.76h6.436v2.678h-6.436v2.866h7.411Zm14.035,0h-2.549l-6.612-8.679v8.679h-2.971V156.361h2.772l6.4,8.409v-8.409h2.96Zm12.872,0H1579.87V156.361h10.277v2.678h-7.317v2.76h6.436v2.678h-6.436v2.866h7.411Zm12.309-10.946h-7.387v2.948h6.518v2.713h-6.518v5.285h-3.007V156.361h10.394Zm4.768,10.946h-3.007V156.361h3.007Zm13.53-1.2a5.844,5.844,0,0,1-1.245.775,6.152,6.152,0,0,1-1.468.482,8.361,8.361,0,0,1-1.8.164,7.044,7.044,0,0,1-2.784-.54,6.775,6.775,0,0,1-2.22-1.492,6.706,6.706,0,0,1-1.468-2.232,7.157,7.157,0,0,1-.529-2.748v-.047a7.1,7.1,0,0,1,.529-2.737,7,7,0,0,1,1.468-2.243,6.722,6.722,0,0,1,2.243-1.527,7.392,7.392,0,0,1,2.878-.552,9.908,9.908,0,0,1,1.75.153,6.843,6.843,0,0,1,1.433.435,6.416,6.416,0,0,1,1.186.658,10.379,10.379,0,0,1,1.022.857l-1.914,2.208a7.029,7.029,0,0,0-1.633-1.128,4.18,4.18,0,0,0-1.856-.411,3.813,3.813,0,0,0-1.6.329,3.9,3.9,0,0,0-1.257.916,4.311,4.311,0,0,0-.822,1.362,4.693,4.693,0,0,0-.282,1.644v.035a4.807,4.807,0,0,0,.282,1.656,4.571,4.571,0,0,0,.81,1.374,3.977,3.977,0,0,0,1.257.928,3.8,3.8,0,0,0,1.609.341,4.221,4.221,0,0,0,1.973-.435,7.085,7.085,0,0,0,1.609-1.174l1.914,1.938A9.684,9.684,0,0,1,1620.848,168.822Zm5.849,1.2h-3.007V156.361h3.007Zm16.537-6.835a6.953,6.953,0,0,1-.54,2.748,6.966,6.966,0,0,1-3.817,3.758,7.4,7.4,0,0,1-2.913.552,7.3,7.3,0,0,1-2.9-.552,7.047,7.047,0,0,1-2.3-1.5,6.72,6.72,0,0,1-1.491-2.22,6.9,6.9,0,0,1-.54-2.737v-.047a6.9,6.9,0,0,1,.54-2.737,7.036,7.036,0,0,1,3.817-3.77,7.96,7.96,0,0,1,5.825,0,7.525,7.525,0,0,1,2.29,1.5,6.8,6.8,0,0,1,1.5,2.232,7.056,7.056,0,0,1,.528,2.737Zm11.768,2.8a4.166,4.166,0,0,1-.376,1.8,3.7,3.7,0,0,1-1.022,1.327,4.564,4.564,0,0,1-1.574.822,6.827,6.827,0,0,1-2.02.282,8.875,8.875,0,0,1-3.065-.54,8.111,8.111,0,0,1-2.737-1.644l1.774-2.126a9.028,9.028,0,0,0,1.926,1.21,5.049,5.049,0,0,0,2.161.446,2.529,2.529,0,0,0,1.445-.341,1.047,1.047,0,0,0,.517-.94v-.047a1.231,1.231,0,0,0-.106-.517,1.135,1.135,0,0,0-.411-.411,5.094,5.094,0,0,0-.834-.4c-.364-.129-.834-.258-1.409-.4a17.724,17.724,0,0,1-1.867-.576,5.008,5.008,0,0,1-1.433-.763,3.166,3.166,0,0,1-.9-1.139,3.862,3.862,0,0,1-.329-1.7v-.035a3.961,3.961,0,0,1,.352-1.691,3.873,3.873,0,0,1,.975-1.292,4.584,4.584,0,0,1,1.5-.846,6.309,6.309,0,0,1,1.926-.282,7.922,7.922,0,0,1,5.074,1.726L1653,160.166a10.939,10.939,0,0,0-1.785-.987,4.731,4.731,0,0,0-1.762-.364,2.147,2.147,0,0,0-1.315.341,1.052,1.052,0,0,0-.435.857v.035a1.261,1.261,0,0,0,.117.575,1.214,1.214,0,0,0,.47.435,4.026,4.026,0,0,0,.9.376c.388.117.869.247,1.456.411a13.568,13.568,0,0,1,1.844.611,5.2,5.2,0,0,1,1.374.822,3.237,3.237,0,0,1,.846,1.116,3.867,3.867,0,0,1,.282,1.539Zm19.027,4.04h-2.549l-6.612-8.679v8.679H1661.9V156.361h2.772l6.4,8.409v-8.409h2.96Zm14.188-5.955a7.836,7.836,0,0,1-.423,2.713,5.114,5.114,0,0,1-1.2,1.914,4.774,4.774,0,0,1-1.891,1.151,7.514,7.514,0,0,1-2.478.388,5.97,5.97,0,0,1-4.334-1.527,6.048,6.048,0,0,1-1.574-4.545v-7.8h2.995v7.728a3.633,3.633,0,0,0,.787,2.525,2.8,2.8,0,0,0,2.161.846,2.851,2.851,0,0,0,2.173-.822,3.439,3.439,0,0,0,.775-2.455v-7.822h3.007Zm12.614-4.933h-4.158V170.02h-2.995V159.132h-4.158v-2.772h11.31Zm9.807,10.887-2.924-4.369h-2.361v4.369h-2.995V156.361h6.236a5.385,5.385,0,0,1,3.981,1.386,4.228,4.228,0,0,1,1.163,3.124v.035a4.343,4.343,0,0,1-.8,2.7,4.625,4.625,0,0,1-2.126,1.527l3.335,4.886Zm8.174,0H1715.8V156.361h3.007Zm13.542-1.2a6.146,6.146,0,0,1-1.245.775,6.333,6.333,0,0,1-1.468.482,8.436,8.436,0,0,1-1.8.164,7.044,7.044,0,0,1-2.784-.54,6.675,6.675,0,0,1-3.688-3.723,7.16,7.16,0,0,1-.528-2.748v-.047a7.1,7.1,0,0,1,.528-2.737,7.176,7.176,0,0,1,1.456-2.243,6.847,6.847,0,0,1,2.243-1.527,7.45,7.45,0,0,1,2.889-.552,10.007,10.007,0,0,1,1.75.153,7.064,7.064,0,0,1,1.433.435,6.823,6.823,0,0,1,1.186.658,9.043,9.043,0,0,1,1.01.857l-1.9,2.208a7.292,7.292,0,0,0-1.633-1.128,4.2,4.2,0,0,0-1.868-.411,3.8,3.8,0,0,0-1.586.329,3.9,3.9,0,0,0-1.257.916,4.31,4.31,0,0,0-.822,1.362,4.7,4.7,0,0,0-.294,1.644v.035a4.818,4.818,0,0,0,.294,1.656,4.569,4.569,0,0,0,.811,1.374,3.927,3.927,0,0,0,1.245.928,3.875,3.875,0,0,0,1.609.341,4.238,4.238,0,0,0,1.985-.435,7.088,7.088,0,0,0,1.609-1.174l1.914,1.938A9.675,9.675,0,0,1,1732.353,168.822Zm5.849,1.2h-3.007V156.361h3.007Zm16.537-6.835a6.955,6.955,0,0,1-.54,2.748,6.966,6.966,0,0,1-3.817,3.758,7.961,7.961,0,0,1-5.826,0,7.116,7.116,0,0,1-2.29-1.5,6.75,6.75,0,0,1-1.5-2.22,7.1,7.1,0,0,1-.529-2.737v-.047a6.9,6.9,0,0,1,.54-2.737,7.037,7.037,0,0,1,3.817-3.77,7.96,7.96,0,0,1,5.825,0,7.528,7.528,0,0,1,2.29,1.5,6.769,6.769,0,0,1,1.492,2.232,6.857,6.857,0,0,1,.54,2.737Zm14.023,6.835h-2.548l-6.612-8.679v8.679h-2.971V156.361h2.772l6.4,8.409v-8.409h2.96Zm12.661,0-1.245-3.065H1774.4l-1.245,3.065h-3.065l5.849-13.753h2.772l5.849,13.753Zm14.27,0h-9.807V156.361h3.007v10.946h6.8Zm11.862,0h-10.371V156.361h10.277v2.678h-7.317v2.76h6.436v2.678h-6.436v2.866h7.411Zm11.78-4.04a4.161,4.161,0,0,1-.364,1.8,3.6,3.6,0,0,1-1.033,1.327,4.461,4.461,0,0,1-1.574.822,6.826,6.826,0,0,1-2.02.282,8.876,8.876,0,0,1-3.065-.54,7.953,7.953,0,0,1-2.725-1.644l1.774-2.126a8.68,8.68,0,0,0,1.914,1.21,5.05,5.05,0,0,0,2.161.446,2.6,2.6,0,0,0,1.457-.341,1.072,1.072,0,0,0,.517-.94v-.047a1.082,1.082,0,0,0-.117-.517,1.05,1.05,0,0,0-.411-.411,5.087,5.087,0,0,0-.834-.4c-.364-.129-.822-.258-1.4-.4a17.977,17.977,0,0,1-1.879-.576,4.937,4.937,0,0,1-1.421-.763,3.08,3.08,0,0,1-.916-1.139,4.045,4.045,0,0,1-.317-1.7v-.035a3.959,3.959,0,0,1,.34-1.691,3.913,3.913,0,0,1,.987-1.292,4.353,4.353,0,0,1,1.5-.846,6.2,6.2,0,0,1,1.926-.282,7.922,7.922,0,0,1,5.074,1.726l-1.562,2.267a10.546,10.546,0,0,0-1.8-.987,4.73,4.73,0,0,0-1.762-.364,2.172,2.172,0,0,0-1.315.341,1.052,1.052,0,0,0-.434.857v.035a1.259,1.259,0,0,0,.129.575,1.1,1.1,0,0,0,.458.435,4.563,4.563,0,0,0,.9.376c.387.117.869.247,1.456.411a13.762,13.762,0,0,1,1.856.611,4.946,4.946,0,0,1,1.363.822,3.1,3.1,0,0,1,.845,1.116,3.867,3.867,0,0,1,.282,1.539Zm-43.867-1.679h3.629l-1.809-4.428Zm-25.028-4.134a4.173,4.173,0,0,0-1.315-.928,4.292,4.292,0,0,0-3.324-.012,3.917,3.917,0,0,0-1.292.916,4.338,4.338,0,0,0-.834,1.362,4.451,4.451,0,0,0-.305,1.644v.035a4.56,4.56,0,0,0,.305,1.656,4.055,4.055,0,0,0,.857,1.374,4.18,4.18,0,0,0,1.3.928,4.224,4.224,0,0,0,3.324,0,3.649,3.649,0,0,0,1.3-.916,4.28,4.28,0,0,0,.834-1.351,4.541,4.541,0,0,0,.305-1.644v-.047a4.557,4.557,0,0,0-.305-1.656A4.188,4.188,0,0,0,1750.44,160.166Zm-42.105-1.092h-2.983V163h3.042a2.5,2.5,0,0,0,1.715-.529,1.778,1.778,0,0,0,.587-1.409v-.035a1.743,1.743,0,0,0-.622-1.468A2.783,2.783,0,0,0,1708.335,159.074Zm-69.4,1.092a4.2,4.2,0,0,0-4.639-.94,3.92,3.92,0,0,0-1.292.916,4.338,4.338,0,0,0-.834,1.362,4.449,4.449,0,0,0-.305,1.644v.035a4.557,4.557,0,0,0,.305,1.656,4.243,4.243,0,0,0,.857,1.374,4.467,4.467,0,0,0,1.3.928,4.07,4.07,0,0,0,1.668.341,4.151,4.151,0,0,0,1.668-.341,3.6,3.6,0,0,0,1.292-.916,4.285,4.285,0,0,0,.834-1.351,4.543,4.543,0,0,0,.305-1.644v-.047a4.56,4.56,0,0,0-.305-1.656A4.006,4.006,0,0,0,1638.935,160.166Zm.857,1.362a4.006,4.006,0,0,0-.857-1.362,4.2,4.2,0,0,0-4.639-.94,3.92,3.92,0,0,0-1.292.916,4.338,4.338,0,0,0-.834,1.362,4.449,4.449,0,0,0-.305,1.644v.035a4.557,4.557,0,0,0,.305,1.656,4.243,4.243,0,0,0,.857,1.374,4.467,4.467,0,0,0,1.3.928,4.07,4.07,0,0,0,1.668.341,4.151,4.151,0,0,0,1.668-.341,3.6,3.6,0,0,0,1.292-.916,4.285,4.285,0,0,0,.834-1.351,4.543,4.543,0,0,0,.305-1.644v-.047A4.56,4.56,0,0,0,1639.792,161.528Zm70.281-1.973a2.783,2.783,0,0,0-1.738-.482h-2.983V163h3.042a2.5,2.5,0,0,0,1.715-.529,1.778,1.778,0,0,0,.587-1.409v-.035A1.743,1.743,0,0,0,1710.073,159.555Zm41.224,1.973a4.1,4.1,0,0,0-2.173-2.29,4.292,4.292,0,0,0-3.324-.012,3.917,3.917,0,0,0-1.292.916,4.338,4.338,0,0,0-.834,1.362,4.451,4.451,0,0,0-.305,1.644v.035a4.56,4.56,0,0,0,.305,1.656,4.055,4.055,0,0,0,.857,1.374,4.18,4.18,0,0,0,1.3.928,4.224,4.224,0,0,0,3.324,0,3.649,3.649,0,0,0,1.3-.916,4.28,4.28,0,0,0,.834-1.351,4.541,4.541,0,0,0,.305-1.644v-.047A4.557,4.557,0,0,0,1751.3,161.528Zm25.991-1.656-1.82,4.428h3.629Zm0,0-1.82,4.428h3.629Zm-25.991,1.656a4.1,4.1,0,0,0-2.173-2.29,4.292,4.292,0,0,0-3.324-.012,3.917,3.917,0,0,0-1.292.916,4.338,4.338,0,0,0-.834,1.362,4.451,4.451,0,0,0-.305,1.644v.035a4.56,4.56,0,0,0,.305,1.656,4.055,4.055,0,0,0,.857,1.374,4.18,4.18,0,0,0,1.3.928,4.224,4.224,0,0,0,3.324,0,3.649,3.649,0,0,0,1.3-.916,4.28,4.28,0,0,0,.834-1.351,4.541,4.541,0,0,0,.305-1.644v-.047A4.557,4.557,0,0,0,1751.3,161.528Zm-41.224-1.973a2.783,2.783,0,0,0-1.738-.482h-2.983V163h3.042a2.5,2.5,0,0,0,1.715-.529,1.778,1.778,0,0,0,.587-1.409v-.035A1.743,1.743,0,0,0,1710.073,159.555Zm-70.281,1.973a4.006,4.006,0,0,0-.857-1.362,4.2,4.2,0,0,0-4.639-.94,3.92,3.92,0,0,0-1.292.916,4.338,4.338,0,0,0-.834,1.362,4.449,4.449,0,0,0-.305,1.644v.035a4.557,4.557,0,0,0,.305,1.656,4.243,4.243,0,0,0,.857,1.374,4.467,4.467,0,0,0,1.3.928,4.07,4.07,0,0,0,1.668.341,4.151,4.151,0,0,0,1.668-.341,3.6,3.6,0,0,0,1.292-.916,4.285,4.285,0,0,0,.834-1.351,4.543,4.543,0,0,0,.305-1.644v-.047A4.56,4.56,0,0,0,1639.792,161.528Zm0,0a4.006,4.006,0,0,0-.857-1.362,4.2,4.2,0,0,0-4.639-.94,3.92,3.92,0,0,0-1.292.916,4.338,4.338,0,0,0-.834,1.362,4.449,4.449,0,0,0-.305,1.644v.035a4.557,4.557,0,0,0,.305,1.656,4.243,4.243,0,0,0,.857,1.374,4.467,4.467,0,0,0,1.3.928,4.07,4.07,0,0,0,1.668.341,4.151,4.151,0,0,0,1.668-.341,3.6,3.6,0,0,0,1.292-.916,4.285,4.285,0,0,0,.834-1.351,4.543,4.543,0,0,0,.305-1.644v-.047A4.56,4.56,0,0,0,1639.792,161.528Zm70.281-1.973a2.783,2.783,0,0,0-1.738-.482h-2.983V163h3.042a2.5,2.5,0,0,0,1.715-.529,1.778,1.778,0,0,0,.587-1.409v-.035A1.743,1.743,0,0,0,1710.073,159.555Zm41.224,1.973a4.1,4.1,0,0,0-2.173-2.29,4.292,4.292,0,0,0-3.324-.012,3.917,3.917,0,0,0-1.292.916,4.338,4.338,0,0,0-.834,1.362,4.451,4.451,0,0,0-.305,1.644v.035a4.56,4.56,0,0,0,.305,1.656,4.055,4.055,0,0,0,.857,1.374,4.18,4.18,0,0,0,1.3.928,4.224,4.224,0,0,0,3.324,0,3.649,3.649,0,0,0,1.3-.916,4.28,4.28,0,0,0,.834-1.351,4.541,4.541,0,0,0,.305-1.644v-.047A4.557,4.557,0,0,0,1751.3,161.528Zm0,0a4.1,4.1,0,0,0-2.173-2.29,4.292,4.292,0,0,0-3.324-.012,3.917,3.917,0,0,0-1.292.916,4.338,4.338,0,0,0-.834,1.362,4.451,4.451,0,0,0-.305,1.644v.035a4.56,4.56,0,0,0,.305,1.656,4.055,4.055,0,0,0,.857,1.374,4.18,4.18,0,0,0,1.3.928,4.224,4.224,0,0,0,3.324,0,3.649,3.649,0,0,0,1.3-.916,4.28,4.28,0,0,0,.834-1.351,4.541,4.541,0,0,0,.305-1.644v-.047A4.557,4.557,0,0,0,1751.3,161.528Zm-41.224-1.973a2.783,2.783,0,0,0-1.738-.482h-2.983V163h3.042a2.5,2.5,0,0,0,1.715-.529,1.778,1.778,0,0,0,.587-1.409v-.035A1.743,1.743,0,0,0,1710.073,159.555Zm-70.281,1.973a4.006,4.006,0,0,0-.857-1.362,4.2,4.2,0,0,0-4.639-.94,3.92,3.92,0,0,0-1.292.916,4.338,4.338,0,0,0-.834,1.362,4.449,4.449,0,0,0-.305,1.644v.035a4.557,4.557,0,0,0,.305,1.656,4.243,4.243,0,0,0,.857,1.374,4.467,4.467,0,0,0,1.3.928,4.07,4.07,0,0,0,1.668.341,4.151,4.151,0,0,0,1.668-.341,3.6,3.6,0,0,0,1.292-.916,4.285,4.285,0,0,0,.834-1.351,4.543,4.543,0,0,0,.305-1.644v-.047A4.56,4.56,0,0,0,1639.792,161.528Zm0,0a4.006,4.006,0,0,0-.857-1.362,4.2,4.2,0,0,0-4.639-.94,3.92,3.92,0,0,0-1.292.916,4.338,4.338,0,0,0-.834,1.362,4.449,4.449,0,0,0-.305,1.644v.035a4.557,4.557,0,0,0,.305,1.656,4.243,4.243,0,0,0,.857,1.374,4.467,4.467,0,0,0,1.3.928,4.07,4.07,0,0,0,1.668.341,4.151,4.151,0,0,0,1.668-.341,3.6,3.6,0,0,0,1.292-.916,4.285,4.285,0,0,0,.834-1.351,4.543,4.543,0,0,0,.305-1.644v-.047A4.56,4.56,0,0,0,1639.792,161.528Zm70.281-1.973a2.783,2.783,0,0,0-1.738-.482h-2.983V163h3.042a2.5,2.5,0,0,0,1.715-.529,1.778,1.778,0,0,0,.587-1.409v-.035A1.743,1.743,0,0,0,1710.073,159.555Zm0,0a2.783,2.783,0,0,0-1.738-.482h-2.983V163h3.042a2.5,2.5,0,0,0,1.715-.529,1.778,1.778,0,0,0,.587-1.409v-.035A1.743,1.743,0,0,0,1710.073,159.555Zm-70.281,1.973a4.006,4.006,0,0,0-.857-1.362,4.2,4.2,0,0,0-4.639-.94,3.92,3.92,0,0,0-1.292.916,4.338,4.338,0,0,0-.834,1.362,4.449,4.449,0,0,0-.305,1.644v.035a4.557,4.557,0,0,0,.305,1.656,4.243,4.243,0,0,0,.857,1.374,4.467,4.467,0,0,0,1.3.928,4.07,4.07,0,0,0,1.668.341,4.151,4.151,0,0,0,1.668-.341,3.6,3.6,0,0,0,1.292-.916,4.285,4.285,0,0,0,.834-1.351,4.543,4.543,0,0,0,.305-1.644v-.047A4.56,4.56,0,0,0,1639.792,161.528Zm0,0a4.006,4.006,0,0,0-.857-1.362,4.2,4.2,0,0,0-4.639-.94,3.92,3.92,0,0,0-1.292.916,4.338,4.338,0,0,0-.834,1.362,4.449,4.449,0,0,0-.305,1.644v.035a4.557,4.557,0,0,0,.305,1.656,4.243,4.243,0,0,0,.857,1.374,4.467,4.467,0,0,0,1.3.928,4.07,4.07,0,0,0,1.668.341,4.151,4.151,0,0,0,1.668-.341,3.6,3.6,0,0,0,1.292-.916,4.285,4.285,0,0,0,.834-1.351,4.543,4.543,0,0,0,.305-1.644v-.047A4.56,4.56,0,0,0,1639.792,161.528Zm70.281-1.973a2.783,2.783,0,0,0-1.738-.482h-2.983V163h3.042a2.5,2.5,0,0,0,1.715-.529,1.778,1.778,0,0,0,.587-1.409v-.035A1.743,1.743,0,0,0,1710.073,159.555Zm0,0a2.783,2.783,0,0,0-1.738-.482h-2.983V163h3.042a2.5,2.5,0,0,0,1.715-.529,1.778,1.778,0,0,0,.587-1.409v-.035A1.743,1.743,0,0,0,1710.073,159.555Zm-70.281,1.973a4.006,4.006,0,0,0-.857-1.362,4.2,4.2,0,0,0-4.639-.94,3.92,3.92,0,0,0-1.292.916,4.338,4.338,0,0,0-.834,1.362,4.449,4.449,0,0,0-.305,1.644v.035a4.557,4.557,0,0,0,.305,1.656,4.243,4.243,0,0,0,.857,1.374,4.467,4.467,0,0,0,1.3.928,4.07,4.07,0,0,0,1.668.341,4.151,4.151,0,0,0,1.668-.341,3.6,3.6,0,0,0,1.292-.916,4.285,4.285,0,0,0,.834-1.351,4.543,4.543,0,0,0,.305-1.644v-.047A4.56,4.56,0,0,0,1639.792,161.528Zm0,0a4.006,4.006,0,0,0-.857-1.362,4.2,4.2,0,0,0-4.639-.94,3.92,3.92,0,0,0-1.292.916,4.338,4.338,0,0,0-.834,1.362,4.449,4.449,0,0,0-.305,1.644v.035a4.557,4.557,0,0,0,.305,1.656,4.243,4.243,0,0,0,.857,1.374,4.467,4.467,0,0,0,1.3.928,4.07,4.07,0,0,0,1.668.341,4.151,4.151,0,0,0,1.668-.341,3.6,3.6,0,0,0,1.292-.916,4.285,4.285,0,0,0,.834-1.351,4.543,4.543,0,0,0,.305-1.644v-.047A4.56,4.56,0,0,0,1639.792,161.528Zm0,0a4.006,4.006,0,0,0-.857-1.362,4.2,4.2,0,0,0-4.639-.94,3.92,3.92,0,0,0-1.292.916,4.338,4.338,0,0,0-.834,1.362,4.449,4.449,0,0,0-.305,1.644v.035a4.557,4.557,0,0,0,.305,1.656,4.243,4.243,0,0,0,.857,1.374,4.467,4.467,0,0,0,1.3.928,4.07,4.07,0,0,0,1.668.341,4.151,4.151,0,0,0,1.668-.341,3.6,3.6,0,0,0,1.292-.916,4.285,4.285,0,0,0,.834-1.351,4.543,4.543,0,0,0,.305-1.644v-.047A4.56,4.56,0,0,0,1639.792,161.528Zm0,0a4.006,4.006,0,0,0-.857-1.362,4.2,4.2,0,0,0-4.639-.94,3.92,3.92,0,0,0-1.292.916,4.338,4.338,0,0,0-.834,1.362,4.449,4.449,0,0,0-.305,1.644v.035a4.557,4.557,0,0,0,.305,1.656,4.243,4.243,0,0,0,.857,1.374,4.467,4.467,0,0,0,1.3.928,4.07,4.07,0,0,0,1.668.341,4.151,4.151,0,0,0,1.668-.341,3.6,3.6,0,0,0,1.292-.916,4.285,4.285,0,0,0,.834-1.351,4.543,4.543,0,0,0,.305-1.644v-.047A4.56,4.56,0,0,0,1639.792,161.528Zm0,0a4.006,4.006,0,0,0-.857-1.362,4.2,4.2,0,0,0-4.639-.94,3.92,3.92,0,0,0-1.292.916,4.338,4.338,0,0,0-.834,1.362,4.449,4.449,0,0,0-.305,1.644v.035a4.557,4.557,0,0,0,.305,1.656,4.243,4.243,0,0,0,.857,1.374,4.467,4.467,0,0,0,1.3.928,4.07,4.07,0,0,0,1.668.341,4.151,4.151,0,0,0,1.668-.341,3.6,3.6,0,0,0,1.292-.916,4.285,4.285,0,0,0,.834-1.351,4.543,4.543,0,0,0,.305-1.644v-.047A4.56,4.56,0,0,0,1639.792,161.528Zm0,0a4.006,4.006,0,0,0-.857-1.362,4.2,4.2,0,0,0-4.639-.94,3.92,3.92,0,0,0-1.292.916,4.338,4.338,0,0,0-.834,1.362,4.449,4.449,0,0,0-.305,1.644v.035a4.557,4.557,0,0,0,.305,1.656,4.243,4.243,0,0,0,.857,1.374,4.467,4.467,0,0,0,1.3.928,4.07,4.07,0,0,0,1.668.341,4.151,4.151,0,0,0,1.668-.341,3.6,3.6,0,0,0,1.292-.916,4.285,4.285,0,0,0,.834-1.351,4.543,4.543,0,0,0,.305-1.644v-.047A4.56,4.56,0,0,0,1639.792,161.528Zm0,0a4.006,4.006,0,0,0-.857-1.362,4.2,4.2,0,0,0-4.639-.94,3.92,3.92,0,0,0-1.292.916,4.338,4.338,0,0,0-.834,1.362,4.449,4.449,0,0,0-.305,1.644v.035a4.557,4.557,0,0,0,.305,1.656,4.243,4.243,0,0,0,.857,1.374,4.467,4.467,0,0,0,1.3.928,4.07,4.07,0,0,0,1.668.341,4.151,4.151,0,0,0,1.668-.341,3.6,3.6,0,0,0,1.292-.916,4.285,4.285,0,0,0,.834-1.351,4.543,4.543,0,0,0,.305-1.644v-.047A4.56,4.56,0,0,0,1639.792,161.528Z" transform="translate(-1523.53 -150.5)" fill="#fff"/>
    </g>
    <g id="Grupo_249" data-name="Grupo 249">
      <g id="Grupo_247" data-name="Grupo 247">
        <path id="Trazado_332" data-name="Trazado 332" d="M1524.96,151.285a18.2,18.2,0,1,0,5.379,12.919A18.15,18.15,0,0,0,1524.96,151.285Zm-9.325,5.861a2.743,2.743,0,0,1,2.373,1.339,2.75,2.75,0,0,1,0,2.854,2.8,2.8,0,0,1-2.373,1.339,2.766,2.766,0,0,1,0-5.532Zm-1.785,7.763a1.715,1.715,0,1,1-1.715-1.715A1.709,1.709,0,0,1,1513.849,164.909Zm-5.215-7.763a2.766,2.766,0,1,1-2.772,2.76A2.757,2.757,0,0,1,1508.634,157.146Zm.223,13.025a16.64,16.64,0,0,1-4.745-.775l-.188-.07-.011-.047v-2.866a3.544,3.544,0,0,1,3.547-3.547h2.349a3.487,3.487,0,0,1,1.3.258,2.053,2.053,0,0,0-.329,3.347,2.555,2.555,0,0,0-1.926,2.466Zm6.2.552h-.012l-.117.059a6.29,6.29,0,0,1-2.607.482,9.884,9.884,0,0,1-2.983-.482l-.129-.035v-1.809a2.2,2.2,0,0,1,2.2-2.2h1.456a2.2,2.2,0,0,1,2.2,2.2Zm-.4-3.582a2.519,2.519,0,0,0-1.175-.669,2.053,2.053,0,0,0-.329-3.347,3.485,3.485,0,0,1,1.3-.258h2.349a3.384,3.384,0,0,1,1.2.211,3.527,3.527,0,0,1,2.349,3.336v2.866l-.012.047-.188.07a20.344,20.344,0,0,1-2.149.529,16.72,16.72,0,0,1-2.6.247v-1.233A2.523,2.523,0,0,0,1514.659,167.141Z" transform="translate(-1493.93 -146)" fill="#fff"/>
      </g>
      <g id="Grupo_248" data-name="Grupo 248">
        <path id="Trazado_333" data-name="Trazado 333" d="M1524.96,151.285a18.2,18.2,0,1,0,5.379,12.919A18.15,18.15,0,0,0,1524.96,151.285Zm-9.325,5.861a2.743,2.743,0,0,1,2.373,1.339,2.75,2.75,0,0,1,0,2.854,2.8,2.8,0,0,1-2.373,1.339,2.766,2.766,0,0,1,0-5.532Zm-1.785,7.763a1.715,1.715,0,1,1-1.715-1.715A1.709,1.709,0,0,1,1513.849,164.909Zm-5.215-7.763a2.766,2.766,0,1,1-2.772,2.76A2.757,2.757,0,0,1,1508.634,157.146Zm.223,13.025a16.64,16.64,0,0,1-4.745-.775l-.188-.07-.011-.047v-2.866a3.544,3.544,0,0,1,3.547-3.547h2.349a3.487,3.487,0,0,1,1.3.258,2.053,2.053,0,0,0-.329,3.347,2.555,2.555,0,0,0-1.926,2.466Zm6.2.552h-.012l-.117.059a6.29,6.29,0,0,1-2.607.482,9.884,9.884,0,0,1-2.983-.482l-.129-.035v-1.809a2.2,2.2,0,0,1,2.2-2.2h1.456a2.2,2.2,0,0,1,2.2,2.2Zm-.4-3.582a2.519,2.519,0,0,0-1.175-.669,2.053,2.053,0,0,0-.329-3.347,3.485,3.485,0,0,1,1.3-.258h2.349a3.384,3.384,0,0,1,1.2.211,3.527,3.527,0,0,1,2.349,3.336v2.866l-.012.047-.188.07a20.344,20.344,0,0,1-2.149.529,16.72,16.72,0,0,1-2.6.247v-1.233A2.523,2.523,0,0,0,1514.659,167.141Z" transform="translate(-1493.93 -146)" fill="#fff"/>
      </g>
    </g>
  </g>
</svg>
