<svg xmlns="http://www.w3.org/2000/svg" width="39.841" height="23.748" viewBox="0 0 39.841 23.748">
  <g id="Grupo_242" data-name="Grupo 242" transform="translate(0 0)">
    <g id="Grupo_241" data-name="Grupo 241">
      <path id="Trazado_327" data-name="Trazado 327" d="M1729.118,345.9a4.513,4.513,0,1,0,4.792,4.792A4.544,4.544,0,0,0,1729.118,345.9Zm0,0a4.513,4.513,0,1,0,4.792,4.792A4.544,4.544,0,0,0,1729.118,345.9Zm19.884,3.57c-5.085-6.765-11.991-10.934-19.6-10.934s-14.516,4.169-19.614,10.934a1.586,1.586,0,0,0,0,1.879c5.1,6.777,12,10.934,19.614,10.934s14.517-4.158,19.6-10.923A1.568,1.568,0,0,0,1749,349.474Zm-11.24,1.492a8.38,8.38,0,1,1-8.914-8.914A8.429,8.429,0,0,1,1737.762,350.966Zm-8.644-5.062a4.513,4.513,0,1,0,4.792,4.792A4.544,4.544,0,0,0,1729.118,345.9Z" transform="translate(-1709.477 -338.54)" fill="#fff"/>
    </g>
  </g>
</svg>
