<svg xmlns="http://www.w3.org/2000/svg" width="112.811" height="93.99" viewBox="0 0 112.811 93.99">
  <g id="Grupo_1156" data-name="Grupo 1156" transform="translate(0 -0.001)">
    <path id="Trazado_1313" data-name="Trazado 1313" d="M1318.526,184c-9.866,0-21.088-3.606-33.349-10.715-9.853-5.715-20.037-7.536-29.023-9.142-9.18-1.648-18.542-3.348-24.132-9.7.592,25.669,28.74,14.121,55.718,29.758,33.2,19.249,53.546,8.665,56.638-13.92C1339,178.952,1330,184,1318.526,184Z" transform="translate(-1231.996 -100.231)" fill="#fff"/>
    <path id="Trazado_1314" data-name="Trazado 1314" d="M1259.254,159.078c8.547,1.385,18.233,2.951,27.971,8.06,10.148,5.319,19.277,8.018,27.138,8.02h0c7,0,12.756-2.235,16.662-6.454,3.784-4.091,5.781-9.942,5.781-16.926,0-21.07-22.494-38.214-50.14-38.214-31.112,0-48.952,10.849-48.952,29.768C1237.714,155.59,1246.282,156.981,1259.254,159.078Zm7.044-34.218c7.793,0,14.111,4.89,14.111,10.919S1274.091,146.7,1266.3,146.7s-14.11-4.892-14.11-10.922S1258.507,124.861,1266.3,124.861Z" transform="translate(-1230.856 -108.412)" fill="#fff"/>
    <path id="Trazado_1315" data-name="Trazado 1315" d="M1287.744,177.9c36.141,20.952,57.067,6.567,57.067-20.186s-25.546-48.444-57.067-48.444S1232,120.58,1232,147.335,1260.478,162.1,1287.744,177.9Zm.067-65.875c28.971,0,52.537,18.217,52.537,40.609,0,7.6-2.223,14.014-6.418,18.555-4.373,4.725-10.74,7.226-18.421,7.226h0c-8.251,0-17.757-2.793-28.252-8.3-9.391-4.922-18.873-6.457-27.241-7.813-13.158-2.134-23.55-3.818-23.55-18.113C1236.462,123.749,1255.179,112.025,1287.811,112.025Z" transform="translate(-1232 -109.271)" fill="#fff"/>
    <ellipse id="Elipse_23" data-name="Elipse 23" cx="6.993" cy="5.413" rx="6.993" ry="5.413" transform="translate(28.448 21.958)" fill="#fff"/>
  </g>
</svg>
