<svg xmlns="http://www.w3.org/2000/svg" width="24.697" height="28.263" viewBox="0 0 24.697 28.263">
  <g id="Grupo_64" data-name="Grupo 64" transform="translate(0 0)">
    <path id="Trazado_32" data-name="Trazado 32" d="M1545.563,238.8a.589.589,0,0,0-.544-.364h-6.45V223.717a.589.589,0,0,0-.589-.59h-9.418a.59.59,0,0,0-.588.59v14.715H1521.5a.588.588,0,0,0-.416,1l11.743,11.781a.588.588,0,0,0,.417.173h0a.6.6,0,0,0,.417-.171l11.776-11.781A.588.588,0,0,0,1545.563,238.8Z" transform="translate(-1520.911 -223.127)" fill="#fff"/>
  </g>
</svg>
