<svg xmlns="http://www.w3.org/2000/svg" width="373.486" height="36.409" viewBox="0 0 373.486 36.409">
  <g id="Grupo_256" data-name="Grupo 256" transform="translate(0 0)">
    <g id="Grupo_251" data-name="Grupo 251" transform="translate(24.077 5.285)">
      <path id="Trazado_334" data-name="Trazado 334" d="M1526.762,455.419a18.146,18.146,0,0,1-5.379,12.919h-6.953v-13.8l.247-.458,1.82-.834,1.668-.2.141-.153.235-.658-.106-.27-2.161-2.243.94-.6.059-.47-.434-.023-1.128.81h-1.28V442.5h6.953A18.146,18.146,0,0,1,1526.762,455.419Z" transform="translate(-1514.43 -442.5)" fill="#fff"/>
    </g>
    <g id="Grupo_1234" data-name="Grupo 1234">
      <g id="Grupo_252" data-name="Grupo 252" transform="translate(34.765 5.285)">
        <path id="Trazado_335" data-name="Trazado 335" d="M1542.522,452.619h-2.772V449.73h2.96a2.464,2.464,0,0,1,1.468.364,1.2,1.2,0,0,1,.505,1.045v.035a1.186,1.186,0,0,1-.587,1.1A3.16,3.16,0,0,1,1542.522,452.619Z" transform="translate(-1520.7 -441.238)" fill="#fff"/>
        <path id="Trazado_336" data-name="Trazado 336" d="M1544.918,454.719a1.269,1.269,0,0,1,.528,1.081v.035a1.256,1.256,0,0,1-.564,1.128,2.988,2.988,0,0,1-1.562.352h-3.57V454.32h3.476A2.8,2.8,0,0,1,1544.918,454.719Z" transform="translate(-1520.7 -440.438)" fill="#fff"/>
        <path id="Trazado_337" data-name="Trazado 337" d="M1627.518,451.872l-1.82,4.428h3.629Zm0,0-1.82,4.428h3.629Zm0,0-1.82,4.428h3.629Zm16.325-.317a2.83,2.83,0,0,0-1.738-.482h-2.983V455h3.042a2.465,2.465,0,0,0,1.7-.529,1.786,1.786,0,0,0,.6-1.409v-.035A1.776,1.776,0,0,0,1643.844,451.555Zm16.69.317-1.809,4.428h3.629Zm0,0-1.809,4.428h3.629Zm-16.69-.317a2.83,2.83,0,0,0-1.738-.482h-2.983V455h3.042a2.465,2.465,0,0,0,1.7-.529,1.786,1.786,0,0,0,.6-1.409v-.035A1.776,1.776,0,0,0,1643.844,451.555Zm-16.325.317-1.82,4.428h3.629Zm0,0-1.82,4.428h3.629Zm16.325-.317a2.83,2.83,0,0,0-1.738-.482h-2.983V455h3.042a2.465,2.465,0,0,0,1.7-.529,1.786,1.786,0,0,0,.6-1.409v-.035A1.776,1.776,0,0,0,1643.844,451.555Zm16.69.317-1.809,4.428h3.629Zm0,0-1.809,4.428h3.629Zm-16.69-.317a2.83,2.83,0,0,0-1.738-.482h-2.983V455h3.042a2.465,2.465,0,0,0,1.7-.529,1.786,1.786,0,0,0,.6-1.409v-.035A1.776,1.776,0,0,0,1643.844,451.555Zm-16.325.317-1.82,4.428h3.629Zm0,0-1.82,4.428h3.629Zm16.325-.317a2.83,2.83,0,0,0-1.738-.482h-2.983V455h3.042a2.465,2.465,0,0,0,1.7-.529,1.786,1.786,0,0,0,.6-1.409v-.035A1.776,1.776,0,0,0,1643.844,451.555Zm16.69.317-1.809,4.428h3.629Zm51.184,0L1709.9,456.3h3.629Zm0,0L1709.9,456.3h3.629Zm-51.184,0-1.809,4.428h3.629Zm-16.69-.317a2.83,2.83,0,0,0-1.738-.482h-2.983V455h3.042a2.465,2.465,0,0,0,1.7-.529,1.786,1.786,0,0,0,.6-1.409v-.035A1.776,1.776,0,0,0,1643.844,451.555Zm-16.325.317-1.82,4.428h3.629ZM1523.53,442.5a22.9,22.9,0,0,1,0,25.839h338.72V442.5Zm27.706,15.773a3.592,3.592,0,0,1-.352,1.633,3.3,3.3,0,0,1-1.034,1.174,5.125,5.125,0,0,1-1.621.7,8.9,8.9,0,0,1-2.091.235h-6.483V448.361h6.331a4.821,4.821,0,0,1,3.559,1.21,3.152,3.152,0,0,1,.928,2.326v.035a3.432,3.432,0,0,1-.141,1.034,3.038,3.038,0,0,1-.387.81,3.637,3.637,0,0,1-.564.634,3.9,3.9,0,0,1-.681.47,4.461,4.461,0,0,1,1.856,1.221,3.063,3.063,0,0,1,.681,2.126Zm4.862,3.747h-3.007V448.361h3.007Zm13,0h-10.371V448.361h10.277v2.678h-7.317v2.76h6.436v2.678h-6.436v2.866h7.411Zm14.047,0H1580.6l-6.612-8.679v8.679h-2.971V448.361h2.772l6.4,8.409v-8.409h2.96Zm12.872,0h-10.371V448.361h10.277v2.678h-7.317v2.76h6.436v2.678h-6.436v2.866h7.411Zm11.78-4.04a4.16,4.16,0,0,1-.364,1.8,3.6,3.6,0,0,1-1.033,1.327,4.46,4.46,0,0,1-1.574.822,6.829,6.829,0,0,1-2.02.282,8.876,8.876,0,0,1-3.065-.54,7.95,7.95,0,0,1-2.725-1.644l1.773-2.126a8.691,8.691,0,0,0,1.914,1.21,5.051,5.051,0,0,0,2.161.446,2.6,2.6,0,0,0,1.456-.341,1.072,1.072,0,0,0,.517-.94v-.047a1.081,1.081,0,0,0-.117-.517,1.051,1.051,0,0,0-.411-.411,5.088,5.088,0,0,0-.834-.4c-.364-.129-.822-.258-1.4-.4a17.97,17.97,0,0,1-1.879-.576,5.169,5.169,0,0,1-1.433-.763,3.169,3.169,0,0,1-.9-1.139,4.038,4.038,0,0,1-.329-1.7v-.035a3.962,3.962,0,0,1,.352-1.691,4.038,4.038,0,0,1,.975-1.292,4.524,4.524,0,0,1,1.515-.846,6.2,6.2,0,0,1,1.926-.282,7.923,7.923,0,0,1,5.074,1.727l-1.562,2.267a10.554,10.554,0,0,0-1.8-.987,4.73,4.73,0,0,0-1.762-.364,2.171,2.171,0,0,0-1.316.341,1.052,1.052,0,0,0-.435.857v.035a1.258,1.258,0,0,0,.129.576,1.1,1.1,0,0,0,.458.435,4.573,4.573,0,0,0,.9.376c.388.117.869.247,1.456.411a13.746,13.746,0,0,1,1.856.611,4.94,4.94,0,0,1,1.362.822,3.1,3.1,0,0,1,.846,1.116,3.872,3.872,0,0,1,.282,1.539Zm12.168-6.847h-4.146V462.02h-3.007V451.132h-4.158v-2.772h11.31Zm11.686,10.887-1.245-3.065h-5.779l-1.245,3.065h-3.066l5.849-13.753h2.772l5.849,13.753Zm12.755,0-2.924-4.369h-2.361v4.369h-3.007V448.361h6.248a5.338,5.338,0,0,1,3.97,1.386,4.189,4.189,0,0,1,1.174,3.124v.035a4.275,4.275,0,0,1-.81,2.7,4.652,4.652,0,0,1-2.114,1.527l3.335,4.886Zm20.26,0-1.245-3.065h-5.767l-1.257,3.065h-3.054l5.849-13.753h2.772l5.849,13.753Zm16.6,0h-2.548l-6.612-8.679v8.679h-2.96V448.361h2.76l6.4,8.409v-8.409h2.959Zm5.638,0h-2.995V448.361h2.995Zm16.29,0h-2.96v-8.914l-3.841,5.825h-.082l-3.805-5.767v8.856h-2.96V448.361h3.23l3.594,5.778,3.582-5.778h3.242Zm12.661,0-1.245-3.065h-5.778l-1.245,3.065h-3.065l5.849-13.753h2.772l5.849,13.753Zm14.27,0h-9.807V448.361h3.007v10.946h6.8ZM1709.9,456.3h3.629l-1.809-4.428Zm-51.172,0h3.629l-1.82-4.428Zm-16.619-5.226h-2.983V455h3.042a2.465,2.465,0,0,0,1.7-.529,1.786,1.786,0,0,0,.6-1.409v-.035a1.776,1.776,0,0,0-.623-1.468A2.83,2.83,0,0,0,1642.106,451.074ZM1625.7,456.3h3.629l-1.809-4.428Zm1.82-4.428-1.82,4.428h3.629Zm16.325-.317a2.83,2.83,0,0,0-1.738-.482h-2.983V455h3.042a2.465,2.465,0,0,0,1.7-.529,1.786,1.786,0,0,0,.6-1.409v-.035A1.776,1.776,0,0,0,1643.844,451.555Zm16.69.317-1.809,4.428h3.629Zm0,0-1.809,4.428h3.629Zm-16.69-.317a2.83,2.83,0,0,0-1.738-.482h-2.983V455h3.042a2.465,2.465,0,0,0,1.7-.529,1.786,1.786,0,0,0,.6-1.409v-.035A1.776,1.776,0,0,0,1643.844,451.555Zm-16.325.317-1.82,4.428h3.629Zm0,0-1.82,4.428h3.629Zm16.325-.317a2.83,2.83,0,0,0-1.738-.482h-2.983V455h3.042a2.465,2.465,0,0,0,1.7-.529,1.786,1.786,0,0,0,.6-1.409v-.035A1.776,1.776,0,0,0,1643.844,451.555Zm16.69.317-1.809,4.428h3.629Zm0,0-1.809,4.428h3.629Zm-16.69-.317a2.83,2.83,0,0,0-1.738-.482h-2.983V455h3.042a2.465,2.465,0,0,0,1.7-.529,1.786,1.786,0,0,0,.6-1.409v-.035A1.776,1.776,0,0,0,1643.844,451.555Zm-16.325.317-1.82,4.428h3.629Zm0,0-1.82,4.428h3.629Zm16.325-.317a2.83,2.83,0,0,0-1.738-.482h-2.983V455h3.042a2.465,2.465,0,0,0,1.7-.529,1.786,1.786,0,0,0,.6-1.409v-.035A1.776,1.776,0,0,0,1643.844,451.555Zm0,0a2.83,2.83,0,0,0-1.738-.482h-2.983V455h3.042a2.465,2.465,0,0,0,1.7-.529,1.786,1.786,0,0,0,.6-1.409v-.035A1.776,1.776,0,0,0,1643.844,451.555Zm-16.325.317-1.82,4.428h3.629Z" transform="translate(-1523.53 -442.5)" fill="#fff"/>
      </g>
      <g id="Grupo_255" data-name="Grupo 255">
        <g id="Grupo_253" data-name="Grupo 253">
          <path id="Trazado_338" data-name="Trazado 338" d="M1524.96,443.285a18.2,18.2,0,1,0,5.379,12.919A18.15,18.15,0,0,0,1524.96,443.285Zm-8.633,19.2.305.27-.094.235h-1.022l-.223-.176-.505-1.6-.4-1.221-.376-.211.082,1.844.693.975-.117.176-1.151.012-.247-.493-.482-3.383-.564-.681-3.371.317-.951.728-.317.7-.388-.646-.387.646-.27-.669-.435-.035-.188.364.74,2.267,1.08.669-.153.2h-1.257l-.235-.141-.482-.716-.916-2.8h-.259l-.5,2.1,1.01,1.656-.364.106h-1.139l-.258-.223-.023-.4-.259-3.664.282-1.832-.423-2.114-.059.012.176,1.386-.223,1-.27.305-.188-.035-.047-1.069.164-1.069.059-1.151.27-1.6.54-.681.728-.305,6.753.188,6.53-.693.071-.329-.552-.611v-.341l.305-.07.857.529h1.409l1.128-.81.434.023-.059.47-.94.6,2.161,2.243.106.27-.235.658-.141.153-1.668.2-1.82.834-.247.458-1.339,2.478-1.081.81-.223,1.973Z" transform="translate(-1493.93 -438)" fill="#fff"/>
        </g>
        <g id="Grupo_254" data-name="Grupo 254">
          <path id="Trazado_339" data-name="Trazado 339" d="M1524.96,443.285a18.2,18.2,0,1,0,5.379,12.919A18.15,18.15,0,0,0,1524.96,443.285Zm-8.633,19.2.305.27-.094.235h-1.022l-.223-.176-.505-1.6-.4-1.221-.376-.211.082,1.844.693.975-.117.176-1.151.012-.247-.493-.482-3.383-.564-.681-3.371.317-.951.728-.317.7-.388-.646-.387.646-.27-.669-.435-.035-.188.364.74,2.267,1.08.669-.153.2h-1.257l-.235-.141-.482-.716-.916-2.8h-.259l-.5,2.1,1.01,1.656-.364.106h-1.139l-.258-.223-.023-.4-.259-3.664.282-1.832-.423-2.114-.059.012.176,1.386-.223,1-.27.305-.188-.035-.047-1.069.164-1.069.059-1.151.27-1.6.54-.681.728-.305,6.753.188,6.53-.693.071-.329-.552-.611v-.341l.305-.07.857.529h1.409l1.128-.81.434.023-.059.47-.94.6,2.161,2.243.106.27-.235.658-.141.153-1.668.2-1.82.834-.247.458-1.339,2.478-1.081.81-.223,1.973Z" transform="translate(-1493.93 -438)" fill="#fff"/>
        </g>
      </g>
    </g>
  </g>
</svg>
