<svg xmlns="http://www.w3.org/2000/svg" width="712.337" height="469.211" viewBox="0 0 712.337 469.211">
  <g id="Grupo_1152" data-name="Grupo 1152" transform="translate(2007.387 -691)">
    <path id="Trazado_1310" data-name="Trazado 1310" d="M-1381.623,695.633a43.248,43.248,0,0,1-2.792,12.113c-2.945,7.73-5.1,13.336-5.1,13.337l-1.43,3.715,4.01-.423c1.025-.107,6.255-.728,8.621-2.36,2.051-1.413,14.114-11.121,20.227-17.545q.582-.611,1.1-1.181a142.841,142.841,0,0,1-6.583,14.259,59.856,59.856,0,0,1-10.393,14.7c-1.827,1.942-3.553,3.775-2.387,6.071.836,1.646,2.776,2.654,5.023,3.821,1.569.816,3.523,1.831,4.278,2.781,3.969,5,9.573,10.636,15.508,16.6l2.35,2.365.114.113.12.094a20.386,20.386,0,0,1,6.395,10.257,22.44,22.44,0,0,1,.6,5.78c0,2.986,0,5.565,3.669,9.759,4.83,5.517,21.176,25.1,25.085,29.912,1.122,1.382,1.72,2.263,2.154,2.906,1.385,2.046,1.945,2.5,5.991,4.833,7.339,4.233,8.405,6.7,8.289,7.131-.946,3.494-3.405,8.5-9.748,12.5-5.543,3.5-8.778,4.018-13.255,4.734-1.306.21-2.657.426-4.175.733-.893.182-1.674.349-2.366.5a21.4,21.4,0,0,1-3.618.615c-.6,0-1.053-.126-2.673-1.28a18.823,18.823,0,0,0-10.188-3.186,8.576,8.576,0,0,0-3.462.612c-2.065.825-25.863,5.828-35.342,5.828-.447,0-.851-.012-1.2-.035-1.8-.124-3.175-.257-4.276-.365-1.35-.132-2.325-.227-3.268-.227-2.262,0-3.965.587-7.311,1.924a25.984,25.984,0,0,1-6.79,1.417c-3.792.439-7.713.894-10.8,4.228-.929,1-4.005,2.024-7.262,3.1-8.074,2.68-20.278,6.731-29.429,18.744-7.6,9.972-14.135,30.281-19.9,48.2-4.228,13.127-8.221,25.526-11.6,30.434-5.846,8.5-13.441,14.469-23.057,22.029-3.617,2.842-7.356,5.782-11.456,9.2a37.542,37.542,0,0,1-24.271,9.14,24.757,24.757,0,0,1-4.622-.373l-2.7-.6-.307,2.709c-.011.1-1.165,9.978-5.151,16.4-2.966,4.777-3.859,13.727-4.722,22.382a109.711,109.711,0,0,1-1.859,13.527,34.852,34.852,0,0,1-2.937,7.661c-2.03,4.174-4.332,8.905-5.374,20.943a109.569,109.569,0,0,0,3.834,40c1.9,6.03,3.181,7.761,7.607,10.285,1.1.629,1.953,1.032,2.635,1.356,1.477.7,1.477.7,1.983,2.031a2.711,2.711,0,0,1,.248,1.275c-.042,1.866.561,2.926,3.071,5.4a48.1,48.1,0,0,0,3.844,3.347c1.71,1.376,2.874,2.313,3.545,3.7-.884,1.1-5.671,3.395-13.853,3.395-.929,0-1.876-.032-2.813-.094l-2.272-.149c-7.955-.516-15.47-1-15.882-3.428a13.983,13.983,0,0,1,.683-5.268c.723-2.874,1.624-6.451-1.292-8.5a38.373,38.373,0,0,0-4.222-2.688c-.354-.2-.763-.428-1.275-.722a7.966,7.966,0,0,0-1.763-.776c-.2-.4-.453-.969-.56-1.2-1-2.214-.644-6.343-.473-8.327.056-.662.1-1.141.1-1.514,0-.235.023-1.5.062-3.471.178-9.382.652-34.3.326-41.708a96.933,96.933,0,0,0-3.586-20.912l-.416-1.624a41.982,41.982,0,0,1-1.5-8.112v-11.82l-4.753,10.854c-.048.111-4.929,11.237-9.163,19.39-1.185,2.28-2.237,4.166-3.165,5.828-2.5,4.479-4.15,7.438-4.931,11.891-1.064,6.091-1.412,25.251-1.412,31.169,0,5.738,2.517,7.795,4.539,9.448a8.949,8.949,0,0,1,1.948,1.937,2.286,2.286,0,0,1,.556,1.641c.006,1.558.2,3.1,2.46,6.2a36.313,36.313,0,0,0,4.6,4.994c1.649,1.561,2.764,2.658,3.084,3.647-1.995,1.017-8.5,1.67-19.361,1.938-.908.022-1.7.043-2.317.065-.1,0-.2,0-.3,0a6,6,0,0,1-4.457-1.938,7.44,7.44,0,0,0-3.812-2.1,6.563,6.563,0,0,0-.946-.069,10.566,10.566,0,0,0-2.578.393,8.853,8.853,0,0,1-.922.2,2.407,2.407,0,0,1-.171-.307c-.523-1.094-.071-3.533.292-5.492.442-2.385.86-4.637.193-6.476a7.34,7.34,0,0,0-3.065-3.6,3.452,3.452,0,0,1-1.784-2.2,8.849,8.849,0,0,1,.1-5.63c.143-.35,13.824-38.163,11.749-55.739-1.359-11.509-.43-18.454,1.111-29.959.632-4.714,1.346-10.055,2.034-16.712,2.344-22.687,2.371-31.23,2.371-31.582V982.1l-2.376-.1c-.07,0-7.2-.288-17.188-.288-17,0-40.41.8-55.43,4.618-5.821,1.478-11.166,3.209-16.336,4.883-10.627,3.439-20.664,6.687-32.131,6.687a68.627,68.627,0,0,1-19.739-3.034c-28.222-8.374-56.445-19.917-56.726-20.033l-1.353-.554-1.145.9c-.539.423-13.234,10.394-17.515,14.709-4.129,4.16-6.542,6.4-6.566,6.419l-.6.557-.141.8c-.193,1.092-.337,2.41-.488,3.808-.245,2.258-.812,7.472-1.82,8.51h-.03c-.338,0-1.152-.529-1.391-5.438-.2-4.224-.482-10.009-6.13-10.629a20.577,20.577,0,0,1-3.2-.783,21.638,21.638,0,0,0-6.018-1.164,8.263,8.263,0,0,0-4.326,1.131c-3.555,2.14-6.253,6.868-8.748,15.329-.306,1.039-.561,1.992-.791,2.854a20.5,20.5,0,0,1-1.136,3.541,3.394,3.394,0,0,1-.45-.111c-1.813-.564-1.8-3.945-1.8-3.966l.264-7.025-4.629,5.355a11.95,11.95,0,0,1-2.61,2.278c-.555-.852-.5-1.36-.25-3.574.046-.4.1-.844.144-1.331.452-4.462-2.271-10.771-4.218-12.368a2.735,2.735,0,0,0-1.735-.62h-.02c-1.13,0-2.838.048-6.285,8.262a49.913,49.913,0,0,0-3.673,12.739c-.331,3.092-.175,9.425.006,16.755.25,10.208.562,22.911-.551,27.848-.5,2.209-.967,3.854-1.381,5.305-1.226,4.3-1.9,6.675-.814,14.324,1.228,8.639,6.317,33.028,10.179,39.068,2.266,3.546,5.65,5.464,8.12,6.864a11.246,11.246,0,0,1,2.793,1.888,21.294,21.294,0,0,1,.935,2,8.726,8.726,0,0,0,3.188,4.373,53.036,53.036,0,0,1,3.989,3.541,81.218,81.218,0,0,0,6.138,5.389,11.19,11.19,0,0,1,1.81,1.584,123.945,123.945,0,0,1-20.446,1.768,34.731,34.731,0,0,1-4.016-.178,58.082,58.082,0,0,0-7.225-.5,23.276,23.276,0,0,0-2.631.115l-5.666.7,4.385,3.6a50.921,50.921,0,0,1,7.858,7.7c-.374.06-.847.087-1.1.1a8.411,8.411,0,0,0-1.14.115,3.125,3.125,0,0,0-2.065,1.378,7.943,7.943,0,0,1-1.548.342,18.26,18.26,0,0,1-2.528.126,113.084,113.084,0,0,1-20.109-2.214c-5-1.159-6-2.387-6.966-3.575-.191-.235-.379-.465-.577-.687a5.09,5.09,0,0,0-2.842-1.578c-.063-.015-.139-.033-.2-.05a4.6,4.6,0,0,1-.315-1.089,22.854,22.854,0,0,1-.228-4.327c.022-2.94.047-5.979-1.831-8.332a10.63,10.63,0,0,0-2.634-2.484,4.548,4.548,0,0,1-1.535-1.75c-1.007-1.588-.187-4.71.412-6.99.193-.733.374-1.425.507-2.071.561-2.764.636-9.615.636-15.953,0-4.167-3.022-42-8.105-66.26q-.881-4.2-1.675-7.884c-3.886-18.165-5.837-27.282-2.163-33.31,4.54-7.451,17.013-31.5,14.853-43.839-.823-4.7-5.51-14.156-11.444-26.129-9.08-18.322-20.38-41.123-22.725-56.606-1.307-8.616-2.609-16.017-3.758-22.548-2.284-12.989-3.935-22.373-3.68-30.4.388-12.275.393-13.567.393-13.616l-4.953-.123c-.256,5.031-6.287,123.3-5.49,131.128a82.431,82.431,0,0,0,2.647,11.9,211.852,211.852,0,0,1,6.2,30.134l.08.643c2.641,20.988,3.53,28.058-.711,38.587a75.048,75.048,0,0,0-3.839,14.26,169.834,169.834,0,0,0-8.9-23.874c-6.486-13.662-9.688-37.119-7.448-54.562,1.409-10.971,2.543-14.42,3.546-17.462a44.049,44.049,0,0,0,1.534-5.579c.555-2.735.851-16.3,1.326-40.044.624-31.184,1.48-73.9,3.614-90.7,3.556-28.021,10.778-41.811,25.756-49.186,14.911-7.341,29-8.332,40.81-8.332,1.82,0,3.767.026,5.951.078q1.137.027,2.357.027c3.016,0,6.365-.112,10.242-.24,5.053-.167,10.781-.359,17.479-.359,22.048,0,43.823,2.135,68.527,6.718,50.572,9.383,139.945,19.686,170.764,19.686a71.888,71.888,0,0,0,7.546-.315,63.942,63.942,0,0,0,17.037-4.04c6.5-2.343,13.869-5,38.611-6.393,7.579-.427,15.212-.634,23.337-.634,9.961,0,19.11.309,27.956.607,8.056.272,15.666.528,23.215.528a215.475,215.475,0,0,0,25.034-1.287c30.057-3.461,42.977-6.5,43.512-6.629l2.242-.535-.382-2.24c-.021-.12-2.024-11.934-1.931-17.45.029-1.653-.085-3.083-.176-4.23a12.177,12.177,0,0,1-.058-2.574,3.238,3.238,0,0,1,.813-.22c3.445,0,15.7,8.388,18.237,10.993a31.781,31.781,0,0,0,7.143,4.933l5.692,2.857-2.249-5.9c-.022-.057-2.144-5.77.877-10.624,1.718-2.759,4.5-4.434,8.7-6.97a107.442,107.442,0,0,0,13.955-9.649,51.634,51.634,0,0,0,12.043-14.26" transform="translate(-0.136 -0.318)" fill="none" opacity="0.5"/>
    <path id="Trazado_1311" data-name="Trazado 1311" d="M-1382.224,696.629a42.981,42.981,0,0,1-2.787,12.064c-2.939,7.7-5.094,13.281-5.095,13.282l-1.427,3.7,4-.422c1.023-.107,6.244-.725,8.606-2.351,2.048-1.407,14.089-11.076,20.192-17.474.387-.406.752-.8,1.1-1.176a142.16,142.16,0,0,1-6.572,14.2,59.634,59.634,0,0,1-10.375,14.644c-1.824,1.934-3.547,3.76-2.383,6.047.835,1.639,2.771,2.644,5.015,3.805,1.567.813,3.517,1.824,4.27,2.77,3.962,4.981,9.557,10.593,15.482,16.534l2.346,2.356.114.113.12.094a20.3,20.3,0,0,1,6.384,10.215,22.3,22.3,0,0,1,.6,5.756c0,2.974,0,5.542,3.663,9.719,4.822,5.5,21.139,25,25.042,29.791,1.12,1.376,1.717,2.254,2.151,2.894,1.383,2.037,1.942,2.487,5.98,4.813,7.326,4.216,8.391,6.676,8.275,7.1-.945,3.479-3.4,8.463-9.731,12.45-5.534,3.486-8.763,4-13.232,4.715-1.3.209-2.653.424-4.168.73-.892.181-1.671.347-2.362.495a21.417,21.417,0,0,1-3.612.612c-.595,0-1.051-.125-2.669-1.274a18.823,18.823,0,0,0-10.17-3.173,8.576,8.576,0,0,0-3.457.61c-2.062.821-25.819,5.8-35.281,5.8-.447,0-.85-.012-1.2-.035-1.8-.124-3.17-.256-4.269-.363-1.348-.131-2.321-.226-3.262-.226-2.258,0-3.959.584-7.3,1.916a25.989,25.989,0,0,1-6.778,1.412c-3.785.437-7.7.891-10.786,4.211-.928,1-4,2.016-7.249,3.092-8.061,2.669-20.243,6.7-29.378,18.668-7.583,9.932-14.111,30.158-19.87,48-4.221,13.074-8.206,25.422-11.576,30.311-5.836,8.462-13.418,14.41-23.018,21.94-3.611,2.831-7.343,5.759-11.436,9.162a37.532,37.532,0,0,1-24.23,9.1,24.772,24.772,0,0,1-4.614-.372l-2.695-.6-.307,2.7c-.011.1-1.162,9.938-5.142,16.337-2.961,4.758-3.852,13.671-4.714,22.291a109.029,109.029,0,0,1-1.856,13.472,34.661,34.661,0,0,1-2.932,7.63c-2.027,4.157-4.325,8.869-5.365,20.858a108.877,108.877,0,0,0,3.827,39.842c1.9,6.005,3.176,7.729,7.594,10.243,1.1.627,1.949,1.028,2.631,1.351,1.474.7,1.474.7,1.98,2.023a2.7,2.7,0,0,1,.247,1.27c-.042,1.859.56,2.915,3.066,5.377a47.979,47.979,0,0,0,3.837,3.334c1.707,1.37,2.869,2.3,3.539,3.685-.883,1.1-5.661,3.381-13.829,3.381-.928,0-1.872-.032-2.808-.094l-2.268-.148c-7.942-.514-15.443-1-15.855-3.414a13.9,13.9,0,0,1,.682-5.247c.722-2.862,1.621-6.424-1.29-8.468a38.324,38.324,0,0,0-4.214-2.678c-.354-.2-.762-.427-1.273-.719a7.959,7.959,0,0,0-1.76-.773c-.2-.4-.453-.965-.559-1.2-1-2.205-.643-6.318-.472-8.293.056-.66.1-1.136.1-1.508,0-.234.024-1.494.062-3.456.178-9.344.651-34.164.325-41.539a96.335,96.335,0,0,0-3.58-20.827l-.416-1.617a41.731,41.731,0,0,1-1.494-8.079v-11.773l-4.745,10.81c-.048.11-4.921,11.192-9.147,19.311-1.183,2.271-2.233,4.149-3.16,5.8-2.494,4.461-4.143,7.407-4.922,11.843-1.062,6.066-1.41,25.148-1.41,31.042,0,5.715,2.513,7.763,4.531,9.409a8.927,8.927,0,0,1,1.944,1.929,2.273,2.273,0,0,1,.555,1.634c.006,1.552.2,3.087,2.456,6.172a36.206,36.206,0,0,0,4.6,4.974c1.646,1.555,2.759,2.647,3.079,3.633-1.991,1.013-8.481,1.663-19.328,1.93-.906.022-1.693.043-2.312.064-.1,0-.2,0-.3,0a5.992,5.992,0,0,1-4.449-1.931,7.432,7.432,0,0,0-3.805-2.1,6.541,6.541,0,0,0-.945-.069,10.573,10.573,0,0,0-2.574.391,8.821,8.821,0,0,1-.92.2,2.374,2.374,0,0,1-.171-.306c-.522-1.09-.07-3.518.292-5.469.442-2.375.859-4.618.193-6.45a7.313,7.313,0,0,0-3.059-3.585,3.44,3.44,0,0,1-1.781-2.187,8.792,8.792,0,0,1,.1-5.607c.142-.349,13.8-38.008,11.728-55.513-1.356-11.463-.429-18.379,1.109-29.837.631-4.694,1.344-10.014,2.031-16.644,2.34-22.595,2.367-31.1,2.367-31.454v-2.331l-2.372-.1c-.071,0-7.192-.287-17.158-.287-16.967,0-40.341.8-55.335,4.6-5.811,1.472-11.147,3.2-16.308,4.863-10.609,3.425-20.629,6.66-32.076,6.66a68.656,68.656,0,0,1-19.7-3.022c-28.173-8.34-56.348-19.836-56.629-19.951l-1.35-.552-1.143.894c-.538.422-13.211,10.352-17.485,14.649-4.122,4.143-6.531,6.371-6.554,6.393l-.6.555-.141.8c-.193,1.087-.337,2.4-.487,3.793-.245,2.249-.81,7.441-1.817,8.475h-.03c-.338,0-1.15-.527-1.389-5.416-.2-4.207-.481-9.968-6.12-10.586a20.579,20.579,0,0,1-3.2-.78,21.648,21.648,0,0,0-6.007-1.159,8.263,8.263,0,0,0-4.318,1.126c-3.549,2.131-6.243,6.84-8.733,15.266-.305,1.035-.56,1.984-.789,2.843a20.4,20.4,0,0,1-1.134,3.527,3.4,3.4,0,0,1-.449-.111c-1.81-.561-1.8-3.929-1.8-3.95l.263-7-4.621,5.333a11.924,11.924,0,0,1-2.606,2.268c-.554-.848-.5-1.355-.25-3.56.046-.4.1-.841.143-1.326.451-4.444-2.267-10.728-4.211-12.318a2.734,2.734,0,0,0-1.732-.617h-.02c-1.128,0-2.833.047-6.275,8.229a49.627,49.627,0,0,0-3.667,12.687c-.33,3.08-.174,9.386.006,16.687.25,10.166.561,22.818-.55,27.735-.5,2.2-.966,3.838-1.379,5.284-1.224,4.286-1.9,6.648-.812,14.265,1.225,8.6,6.306,32.894,10.161,38.91,2.262,3.532,5.641,5.442,8.106,6.836a11.238,11.238,0,0,1,2.789,1.881,21.251,21.251,0,0,1,.934,1.991,8.692,8.692,0,0,0,3.182,4.355,52.936,52.936,0,0,1,3.982,3.527,80.941,80.941,0,0,0,6.128,5.367,11.163,11.163,0,0,1,1.807,1.578,124.028,124.028,0,0,1-20.411,1.76,34.738,34.738,0,0,1-4.009-.177,58.112,58.112,0,0,0-7.212-.5,23.338,23.338,0,0,0-2.627.114l-5.657.693,4.378,3.585a50.767,50.767,0,0,1,7.844,7.673c-.373.059-.846.086-1.1.1a8.4,8.4,0,0,0-1.138.114,3.121,3.121,0,0,0-2.061,1.373,7.942,7.942,0,0,1-1.546.34,18.237,18.237,0,0,1-2.524.125,113.132,113.132,0,0,1-20.075-2.205c-4.99-1.154-5.988-2.378-6.954-3.561-.19-.235-.378-.463-.576-.684a5.084,5.084,0,0,0-2.837-1.572c-.063-.015-.139-.033-.2-.05a4.584,4.584,0,0,1-.314-1.085,22.711,22.711,0,0,1-.227-4.309c.022-2.928.047-5.954-1.828-8.3a10.607,10.607,0,0,0-2.629-2.474,4.531,4.531,0,0,1-1.532-1.743c-1.005-1.582-.187-4.691.412-6.962.193-.73.374-1.419.506-2.063.56-2.753.636-9.576.636-15.889,0-4.15-3.017-41.828-8.091-65.991-.586-2.789-1.146-5.4-1.672-7.852-3.879-18.091-5.827-27.172-2.159-33.174,4.532-7.421,16.984-31.369,14.827-43.661-.821-4.68-5.5-14.1-11.424-26.023-9.065-18.248-20.345-40.956-22.687-56.377-1.3-8.581-2.6-15.952-3.752-22.456-2.28-12.936-3.929-22.283-3.674-30.28.387-12.226.392-13.512.392-13.561l-4.944-.123c-.256,5.01-6.276,122.8-5.481,130.6a81.916,81.916,0,0,0,2.643,11.848,210.547,210.547,0,0,1,6.188,30.012l.08.64c2.637,20.9,3.525,27.944-.71,38.43a74.591,74.591,0,0,0-3.832,14.2,168.9,168.9,0,0,0-8.885-23.777c-6.475-13.607-9.672-36.968-7.435-54.34,1.406-10.927,2.539-14.361,3.539-17.391a43.779,43.779,0,0,0,1.531-5.556c.554-2.724.85-16.235,1.323-39.882.623-31.058,1.478-73.6,3.607-90.333,3.551-27.908,10.76-41.641,25.712-48.986,14.886-7.311,28.949-8.3,40.74-8.3,1.817,0,3.761.026,5.941.078q1.135.027,2.353.027c3.011,0,6.354-.112,10.224-.239,5.044-.167,10.763-.357,17.449-.357,22.01,0,43.748,2.126,68.409,6.691,50.485,9.345,139.7,19.606,170.471,19.606a71.89,71.89,0,0,0,7.532-.313,63.953,63.953,0,0,0,17.008-4.024c6.49-2.334,13.845-4.981,38.545-6.367,7.566-.425,15.186-.632,23.3-.632,9.944,0,19.077.307,27.907.6,8.042.271,15.639.526,23.175.526a215.6,215.6,0,0,0,24.991-1.282c30-3.447,42.9-6.475,43.437-6.6l2.238-.533-.381-2.231c-.021-.119-2.021-11.885-1.928-17.379a42.08,42.08,0,0,0-.176-4.213,12.128,12.128,0,0,1-.058-2.564,3.25,3.25,0,0,1,.811-.219c3.439,0,15.676,8.354,18.206,10.949a31.738,31.738,0,0,0,7.131,4.913l5.682,2.845-2.245-5.873c-.022-.057-2.141-5.746.876-10.581,1.715-2.748,4.488-4.416,8.686-6.942a107.249,107.249,0,0,0,13.931-9.61,51.445,51.445,0,0,0,12.023-14.2m1-5.629c-1.749,0-3.669,8.984-14.606,17.967-11.962,9.825-19.413,11.175-23.139,17.146s-1.078,12.714-1.078,12.714a29.467,29.467,0,0,1-6.471-4.431c-2.171-2.228-15.266-11.7-19.992-11.7a2.8,2.8,0,0,0-.5.043c-4.216.77-2.452,3.563-2.55,9.343s1.961,17.822,1.961,17.822-12.942,3.081-43.143,6.55a214.657,214.657,0,0,1-24.7,1.266c-15.74,0-32.021-1.131-51.082-1.131-7.354,0-15.125.169-23.438.635-41.179,2.312-34.9,8.091-55.69,10.4a69.152,69.152,0,0,1-7.254.3c-31.1,0-120.634-10.424-170.013-19.564-30.1-5.57-52.31-6.733-68.867-6.733-11.852,0-20.8.6-27.674.6-.79,0-1.556-.008-2.293-.025-2.012-.049-4.011-.079-6-.079-13.922,0-27.434,1.475-41.847,8.554-16.471,8.091-23.53,23.117-27.059,50.858s-3.53,123.3-4.9,130.04-2.942,6.359-5.1,23.118.589,40.841,7.649,55.676,11.57,33.329,11.765,35.254c.011.1.024.154.037.154.256,0,1.187-15.4,5.454-25.969,4.511-11.174,3.53-18.495.785-40.264s-8.041-34.1-8.825-41.8,5.491-130.231,5.491-130.231,0,1.158-.391,13.484,3.529,27.357,7.451,53.172,32.159,71.281,34.122,82.455-9.805,34.292-14.512,42-1.569,18.495,3.53,42.768,8.04,61.648,8.04,65.5,0,12.525-.589,15.412-2.549,7.706-.589,10.788,2.158,1.734,4.314,4.431.788,7.514,1.57,11.56,2.551,2.312,3.923,3.852,2.158,3.467,8.823,5.01a114.613,114.613,0,0,0,20.642,2.27,21.359,21.359,0,0,0,2.891-.152c3.922-.577,2.744-1.541,3.725-1.732s4.117.192,4.51-2.119-9.019-10.021-9.019-10.021a21.611,21.611,0,0,1,2.321-.095,55.424,55.424,0,0,1,6.9.481,36.824,36.824,0,0,0,4.326.2c8.08,0,21.41-1.3,22.538-2.414,1.374-1.349.688-2.985-2.45-5.3s-8.334-7.706-10.2-8.958-1.961-2.987-3.334-5.491-7.648-3.658-10.98-8.86-8.431-28.318-9.805-37.951.2-10.019,2.157-18.685-.193-37.377.59-44.7c.756-7.049,6.058-18.741,7.5-18.74a.225.225,0,0,1,.15.053c1.177.963,3.726,6.358,3.334,10.21s-.785,4.816.981,7.128a1.462,1.462,0,0,0,1.217.61c2.016,0,4.863-3.307,4.863-3.307s-.2,5.2,3.528,6.358a4.637,4.637,0,0,0,1.358.24c2.4,0,2.615-3,4.134-8.139,1.765-5.974,4.118-11.752,7.648-13.872a5.756,5.756,0,0,1,3.029-.769c2.991,0,6.335,1.641,8.933,1.924,3.529.385,3.726,4.239,3.921,8.286.189,3.865.732,7.73,3.86,7.73a4.257,4.257,0,0,0,.455-.025c3.528-.385,3.531-9.824,4.315-14.256,0,0,2.414-2.227,6.631-6.466s17.256-14.448,17.256-14.448,28.238,11.56,56.866,20.035a71.135,71.135,0,0,0,20.42,3.125c17.413,0,31.079-7.057,49-11.6,14.96-3.793,38.679-4.523,54.717-4.523,10.031,0,17.057.286,17.057.286s0,8.476-2.353,31.209-5.1,30.439-3.137,47.007-11.174,53.365-11.568,54.331a11.122,11.122,0,0,0-.2,7.127c.981,3.659,3.921,3.273,4.9,5.971s-1.963,8.864-.392,12.137c.641,1.338,1.412,1.712,2.274,1.712,1.091,0,2.326-.6,3.626-.6a3.789,3.789,0,0,1,.571.042c2.487.375,3.481,4.053,8.629,4.053.128,0,.259,0,.392-.007,5.488-.193,24.119-.193,24.119-3.854s-4.706-5.779-8.236-10.6-.784-4.431-2.942-7.706-6.078-3.274-6.078-10.018.4-25.044,1.374-30.63,3.53-8.67,7.847-16.953,9.217-19.455,9.217-19.455,0,2.5,1.568,8.668,3.532,13.1,3.924,21.961-.39,43.541-.39,44.89-.981,7.321.589,10.788.979,1.732,3.331,3.081a45.273,45.273,0,0,1,5.3,3.275c2.744,1.927-1.176,7.515-.393,12.137s8.825,4.817,20.4,5.587c1.013.068,2.007.1,2.976.1,10.094,0,17.495-3.47,16.242-6.457-1.374-3.275-4.315-4.431-8.041-8.091s-1.569-2.7-2.745-5.781-1.96-2.5-5.687-4.623-4.706-3.276-6.471-8.861a107.735,107.735,0,0,1-3.725-38.915c1.57-18.109,5.885-18.495,8.237-28.128s1.961-28.126,6.275-35.062,5.491-17.336,5.491-17.336a26.361,26.361,0,0,0,5.157.431,40.249,40.249,0,0,0,25.827-9.678c15.294-12.715,26.668-19.65,34.9-31.595s18.433-61.262,31.377-78.216,32.358-17.147,36.475-21.579,10.394-2.5,16.669-5.009c3.341-1.334,4.625-1.739,6.367-1.739,1.531,0,3.416.312,7.359.583.413.028.872.041,1.37.041,9.658,0,34.232-5.1,36.282-6.013a6.275,6.275,0,0,1,2.456-.4,16.276,16.276,0,0,1,8.722,2.714c1.765,1.253,2.744,1.734,4.117,1.734a42.8,42.8,0,0,0,6.473-1.157c6.668-1.35,10.589-.963,18.237-5.779s10-10.98,10.785-13.869-3.725-6.552-9.413-9.826-3.528-2.313-7.449-7.128-20.2-24.273-25.1-29.86-1.96-7.128-3.726-14.449a22.54,22.54,0,0,0-7.254-11.56c-6.685-6.723-13.256-13.164-17.648-18.687-2.11-2.652-8.041-4.24-9.021-6.166s5.3-4.238,12.746-18.495,9.706-22.637,9.02-23.89c-.1-.181-.2-.27-.33-.27-.742,0-2.188,3.088-7.221,8.362-5.88,6.166-17.844,15.8-19.8,17.145s-7.452,1.927-7.452,1.927,2.157-5.586,5.1-13.292,3.921-16.376,1.96-18.3a.707.707,0,0,0-.492-.243Z" fill="#fff"/>
  </g>
</svg>
